<?xml version="1.0" encoding="UTF-8" standalone="no"?>
<!-- Created with Inkscape (http://www.inkscape.org/) -->

<svg
   xmlns:dc="http://purl.org/dc/elements/1.1/"
   xmlns:cc="http://creativecommons.org/ns#"
   xmlns:rdf="http://www.w3.org/1999/02/22-rdf-syntax-ns#"
   xmlns:svg="http://www.w3.org/2000/svg"
   xmlns="http://www.w3.org/2000/svg"
   xmlns:sodipodi="http://sodipodi.sourceforge.net/DTD/sodipodi-0.dtd"
   xmlns:inkscape="http://www.inkscape.org/namespaces/inkscape"
   width="401.655mm"
   height="84.667229mm"
   viewBox="0 0 1423.187 300.00199"
   id="svg4885"
   version="1.1"
   inkscape:version="0.91 r13725"
   sodipodi:docname="logo_white.svg">
  <defs
     id="defs4887" />
  <sodipodi:namedview
     id="base"
     pagecolor="#ffffff"
     bordercolor="#666666"
     borderopacity="1.0"
     inkscape:pageopacity="0.0"
     inkscape:pageshadow="2"
     inkscape:zoom="0.35"
     inkscape:cx="1103.7363"
     inkscape:cy="210.001"
     inkscape:document-units="px"
     inkscape:current-layer="layer1"
     showgrid="false"
     fit-margin-top="0"
     fit-margin-left="0"
     fit-margin-right="0"
     fit-margin-bottom="0"
     inkscape:window-width="1920"
     inkscape:window-height="1003"
     inkscape:window-x="0"
     inkscape:window-y="24"
     inkscape:window-maximized="1" />
  <metadata
     id="metadata4890">
    <rdf:RDF>
      <cc:Work
         rdf:about="">
        <dc:format>image/svg+xml</dc:format>
        <dc:type
           rdf:resource="http://purl.org/dc/dcmitype/StillImage" />
        <dc:title></dc:title>
      </cc:Work>
    </rdf:RDF>
  </metadata>
  <g
     inkscape:label="Layer 1"
     inkscape:groupmode="layer"
     id="layer1"
     transform="translate(1168.7363,-442.3612)">
    <g
       transform="translate(-1169.1643,442.3622)"
       id="g5"
       style="fill:#ffffff">
      <path
         inkscape:connector-curvature="0"
         d="m 3.084,154.112 31.908,14.613 31.979,14.654 21.885,10.016 73.734,33.791 c 2.592,1.193 5.365,1.787 8.215,1.787 2.859,0 5.625,-0.594 8.221,-1.795 l 73.746,-33.783 21.867,-10.016 31.988,-14.654 31.9,-14.613 c 1.646,-0.748 2.658,-2.342 2.658,-4.137 0,-1.809 -1.012,-3.398 -2.658,-4.152 l -39.389,-18.031 -21.873,10.018 26.555,12.166 -19.07,8.725 -31.979,14.654 -21.885,10.025 -55.047,25.217 c -1.582,0.732 -3.281,1.098 -5.035,1.098 -1.742,0 -3.436,-0.365 -5.033,-1.098 L 110.722,183.38 88.855,173.355 56.859,158.709 37.808,149.977 64.343,137.811 42.476,127.79 3.084,145.823 c -1.637,0.754 -2.654,2.344 -2.654,4.152 0,1.796 1.017,3.389 2.654,4.137"
         id="path7"
         style="fill:#ffffff" />
      <path
         inkscape:connector-curvature="0"
         d="m 338.527,216.853 -39.393,-18.035 -21.869,10.016 26.549,12.166 -19.064,8.729 -31.979,14.654 -21.885,10.023 -55.043,25.213 c -1.59,0.736 -3.281,1.098 -5.039,1.098 -1.738,0 -3.436,-0.361 -5.029,-1.098 L 110.726,254.406 88.855,244.383 56.859,229.733 37.804,221.001 64.351,208.835 42.476,198.814 3.086,216.853 c -1.635,0.748 -2.658,2.342 -2.658,4.146 0,1.795 1.023,3.389 2.658,4.139 l 31.902,14.611 31.982,14.656 21.885,10.016 73.729,33.793 c 2.598,1.188 5.371,1.787 8.221,1.787 2.859,0 5.625,-0.6 8.217,-1.797 l 73.75,-33.783 21.873,-10.016 31.986,-14.656 31.896,-14.611 c 1.646,-0.75 2.654,-2.344 2.654,-4.139 0.001,-1.805 -1.007,-3.398 -2.654,-4.146"
         id="path9"
         style="fill:#ffffff" />
      <path
         inkscape:connector-curvature="0"
         d="M 48.953,104.144 3.086,83.14 C 1.449,82.396 0.432,80.802 0.432,78.994 c 0,-1.801 1.018,-3.385 2.654,-4.131 L 4.223,74.338 34.993,60.248 66.972,45.584 88.857,35.576 162.59,1.79 c 2.592,-1.189 5.365,-1.791 8.215,-1.791 2.859,0 5.625,0.602 8.225,1.799 l 73.742,33.777 21.867,10.008 17.441,7.998 2.613,1.145 43.834,20.072 c 1.646,0.758 2.658,2.344 2.658,4.152 0,1.795 -1.012,3.385 -2.658,4.133 l -31.896,14.607 -31.992,14.664 -21.867,10.016 -73.742,33.785 c -2.6,1.197 -5.365,1.795 -8.225,1.795 -2.85,0 -5.623,-0.598 -8.215,-1.787 L 88.855,122.37 66.97,112.354 34.992,97.69"
         id="path11"
         style="fill:#ffffff" />
    </g>
    <g
       transform="translate(-1169.1643,442.3622)"
       id="g13"
       style="fill:#ffffff">
      <path
         inkscape:connector-curvature="0"
         d="m 457.24,199.759 c 1.473,2.563 3.377,4.652 5.711,6.289 2.326,1.627 5.004,2.838 8.025,3.604 3.037,0.779 6.176,1.172 9.439,1.172 2.336,0 4.771,-0.271 7.34,-0.818 2.566,-0.543 4.9,-1.387 6.992,-2.563 2.098,-1.168 3.85,-2.709 5.246,-4.66 1.398,-1.934 2.092,-4.383 2.092,-7.342 0,-4.965 -3.307,-8.693 -9.9,-11.178 -6.602,-2.484 -15.809,-4.965 -27.607,-7.459 -4.822,-1.08 -9.525,-2.365 -14.094,-3.846 -4.586,-1.469 -8.67,-3.41 -12.244,-5.822 -3.564,-2.402 -6.438,-5.439 -8.621,-9.082 -2.17,-3.652 -3.264,-8.117 -3.264,-13.396 0,-7.773 1.525,-14.135 4.547,-19.107 3.023,-4.971 7.029,-8.898 12.006,-11.766 4.971,-2.871 10.561,-4.891 16.77,-6.063 6.219,-1.164 12.582,-1.748 19.111,-1.748 6.52,0 12.85,0.623 18.986,1.859 6.137,1.244 11.605,3.352 16.42,6.295 4.824,2.955 8.82,6.873 12.012,11.77 3.178,4.889 5.076,11.063 5.705,18.518 l -31.457,0 c -0.461,-6.365 -2.873,-10.676 -7.223,-12.928 -4.346,-2.248 -9.479,-3.377 -15.373,-3.377 -1.869,0 -3.885,0.113 -6.064,0.35 -2.174,0.232 -4.154,0.74 -5.934,1.516 -1.791,0.775 -3.307,1.904 -4.539,3.377 -1.252,1.477 -1.877,3.457 -1.877,5.943 0,2.953 1.086,5.361 3.264,7.225 2.176,1.857 5.004,3.377 8.51,4.539 3.488,1.168 7.484,2.215 11.992,3.148 4.51,0.93 9.1,1.941 13.752,3.023 4.805,1.098 9.516,2.412 14.098,3.961 4.582,1.559 8.656,3.609 12.227,6.18 3.57,2.559 6.441,5.754 8.625,9.543 2.18,3.813 3.256,8.518 3.256,14.098 0,7.93 -1.584,14.568 -4.779,19.922 -3.188,5.361 -7.33,9.668 -12.459,12.941 -5.129,3.256 -10.99,5.555 -17.592,6.867 -6.602,1.318 -13.314,1.982 -20.162,1.982 -6.984,0 -13.818,-0.707 -20.498,-2.102 -6.674,-1.391 -12.613,-3.721 -17.82,-6.98 -5.209,-3.266 -9.482,-7.58 -12.818,-12.938 -3.334,-5.361 -5.168,-12.078 -5.475,-20.154 l 31.455,0 c -0.001,3.57 0.739,6.64 2.219,9.207"
         id="path15"
         style="fill:#ffffff" />
      <path
         inkscape:connector-curvature="0"
         d="m 620.27,109.233 0,22.133 -24.236,0 0,59.646 c 0,5.6 0.932,9.324 2.795,11.189 1.865,1.863 5.594,2.799 11.174,2.799 1.869,0 3.66,-0.082 5.371,-0.236 1.709,-0.16 3.346,-0.389 4.896,-0.699 l 0,25.633 c -2.791,0.455 -5.908,0.77 -9.32,0.926 -3.428,0.154 -6.766,0.236 -10.027,0.236 -5.121,0 -9.982,-0.354 -14.557,-1.047 -4.59,-0.701 -8.621,-2.053 -12.113,-4.074 -3.5,-2.02 -6.258,-4.896 -8.277,-8.629 -2.02,-3.73 -3.023,-8.617 -3.023,-14.676 l 0,-71.068 -20.043,0 0,-22.133 20.041,0 0,-36.115 33.082,0 0,36.115 24.237,0 z"
         id="path17"
         style="fill:#ffffff" />
      <path
         inkscape:connector-curvature="0"
         d="m 719.082,170.753 c -1.404,1.24 -3.152,2.209 -5.244,2.906 -2.102,0.699 -4.35,1.279 -6.762,1.744 -2.406,0.465 -4.926,0.861 -7.574,1.168 -2.641,0.314 -5.275,0.697 -7.92,1.166 -2.484,0.467 -4.926,1.082 -7.338,1.869 -2.412,0.779 -4.51,1.826 -6.295,3.145 -1.787,1.322 -3.217,2.988 -4.307,5.004 -1.082,2.018 -1.629,4.584 -1.629,7.686 0,2.959 0.547,5.447 1.629,7.459 1.09,2.02 2.566,3.613 4.43,4.775 1.865,1.172 4.035,1.977 6.516,2.455 2.49,0.465 5.053,0.693 7.701,0.693 6.52,0 11.566,-1.086 15.137,-3.266 3.578,-2.174 6.217,-4.775 7.928,-7.803 1.697,-3.031 2.756,-6.098 3.139,-9.207 0.393,-3.1 0.59,-5.584 0.59,-7.449 l 0,-12.345 z M 642.654,146.28 c 0.469,-7.76 2.41,-14.211 5.83,-19.336 3.41,-5.125 7.76,-9.236 13.045,-12.352 5.279,-3.104 11.221,-5.316 17.822,-6.635 6.598,-1.322 13.238,-1.984 19.922,-1.984 6.063,0 12.195,0.43 18.404,1.283 6.211,0.855 11.887,2.527 17.02,5.008 5.125,2.488 9.311,5.941 12.574,10.369 3.266,4.432 4.893,10.293 4.893,17.588 l 0,62.678 c 0,5.439 0.311,10.637 0.93,15.615 0.615,4.969 1.709,8.699 3.264,11.184 l -33.555,0 c -0.623,-1.865 -1.119,-3.77 -1.506,-5.711 -0.389,-1.941 -0.668,-3.924 -0.818,-5.943 -5.285,5.439 -11.498,9.242 -18.646,11.416 -7.15,2.176 -14.439,3.266 -21.895,3.266 -5.748,0 -11.109,-0.703 -16.084,-2.105 -4.973,-1.387 -9.314,-3.563 -13.043,-6.516 -3.721,-2.951 -6.641,-6.68 -8.738,-11.189 -2.088,-4.504 -3.148,-9.861 -3.148,-16.066 0,-6.838 1.207,-12.471 3.617,-16.896 2.404,-4.424 5.512,-7.959 9.311,-10.598 3.807,-2.641 8.156,-4.621 13.057,-5.943 4.889,-1.322 9.824,-2.365 14.793,-3.156 4.973,-0.768 9.865,-1.387 14.68,-1.852 4.818,-0.467 9.086,-1.172 12.816,-2.102 3.729,-0.936 6.674,-2.291 8.857,-4.074 2.166,-1.791 3.174,-4.393 3.027,-7.813 0,-3.566 -0.59,-6.404 -1.752,-8.5 -1.168,-2.094 -2.723,-3.727 -4.664,-4.896 -1.941,-1.164 -4.195,-1.934 -6.752,-2.326 -2.559,-0.383 -5.322,-0.586 -8.27,-0.586 -6.527,0 -11.652,1.4 -15.381,4.191 -3.721,2.807 -5.904,7.463 -6.52,13.982 l -33.09,0 z"
         id="path19"
         style="fill:#ffffff" />
      <path
         inkscape:connector-curvature="0"
         d="m 830.555,130.905 c -5.287,0 -9.705,1.207 -13.275,3.609 -3.578,2.412 -6.494,5.521 -8.746,9.318 -2.248,3.813 -3.828,8.012 -4.771,12.588 -0.93,4.582 -1.398,9.131 -1.398,13.625 0,4.355 0.469,8.777 1.398,13.281 0.943,4.51 2.447,8.586 4.539,12.234 2.102,3.65 4.932,6.641 8.51,8.965 3.57,2.33 7.924,3.502 13.047,3.502 7.924,0 14.018,-2.219 18.295,-6.641 4.271,-4.422 6.945,-10.375 8.031,-17.818 l 31.922,0 c -2.17,15.992 -8.385,28.188 -18.643,36.572 -10.252,8.385 -23.379,12.584 -39.377,12.584 -9.004,0 -17.281,-1.512 -24.813,-4.549 -7.531,-3.027 -13.943,-7.252 -19.219,-12.695 -5.279,-5.434 -9.396,-11.924 -12.348,-19.455 -2.953,-7.531 -4.426,-15.809 -4.426,-24.813 0,-9.318 1.355,-17.979 4.074,-25.98 2.717,-8.002 6.721,-14.912 12.002,-20.74 5.279,-5.826 11.721,-10.365 19.348,-13.623 7.592,-3.266 16.299,-4.896 26.074,-4.896 7.148,0 14.031,0.934 20.627,2.799 6.602,1.859 12.506,4.697 17.717,8.5 5.203,3.814 9.432,8.543 12.695,14.215 3.26,5.672 5.125,12.389 5.59,20.158 l -32.383,0 c -2.189,-13.828 -10.336,-20.74 -24.47,-20.74"
         id="path21"
         style="fill:#ffffff" />
      <polygon
         points="938.502,188.218 938.502,229.698 905.412,229.698 905.412,63.335 938.502,63.335 938.502,152.575 980.205,109.233 1019.346,109.233 973.914,153.511 1024.479,229.698 984.395,229.698 951.305,175.868 "
         id="polygon23"
         style="fill:#ffffff" />
      <path
         inkscape:connector-curvature="0"
         d="m 1029.828,131.366 0,-22.129 19.801,0 0,-9.324 c 0,-10.715 3.346,-19.49 10.023,-26.33 6.674,-6.824 16.777,-10.244 30.283,-10.244 2.945,0 5.908,0.117 8.861,0.344 2.945,0.232 5.818,0.432 8.631,0.582 l 0,24.697 c -3.885,-0.469 -7.934,-0.697 -12.137,-0.697 -4.504,0 -7.725,1.047 -9.662,3.148 -1.939,2.092 -2.912,5.623 -2.912,10.598 l 0,7.227 22.832,0 0,22.129 -22.832,0 0,98.332 -33.088,0 0,-98.332 -19.8,0 z"
         id="path25"
         style="fill:#ffffff" />
      <path
         inkscape:connector-curvature="0"
         d="m 1205,229.698 0,-16.783 -0.697,0 c -4.182,6.994 -9.621,12.041 -16.305,15.146 -6.684,3.109 -13.512,4.664 -20.498,4.664 -8.854,0 -16.123,-1.158 -21.789,-3.492 -5.668,-2.33 -10.139,-5.639 -13.398,-9.906 -3.264,-4.275 -5.549,-9.479 -6.867,-15.609 -1.326,-6.133 -1.99,-12.928 -1.99,-20.391 l 0,-74.09 33.09,0 0,68.031 c 0,9.943 1.555,17.361 4.664,22.25 3.096,4.896 8.617,7.338 16.541,7.338 9.004,0 15.529,-2.67 19.576,-8.031 4.031,-5.365 6.047,-14.172 6.047,-26.449 l 0,-63.139 33.08,0 0,120.461 -31.454,0 z"
         id="path27"
         style="fill:#ffffff" />
      <path
         inkscape:connector-curvature="0"
         d="m 1331.83,137.435 c -3.957,-4.354 -9.973,-6.529 -18.061,-6.529 -5.279,0 -9.672,0.896 -13.17,2.676 -3.488,1.791 -6.287,4.004 -8.385,6.641 -2.096,2.643 -3.568,5.443 -4.426,8.393 -0.861,2.949 -1.357,5.59 -1.512,7.924 l 53.82,0 c -1.553,-8.394 -4.299,-14.764 -8.266,-19.105 m -37.392,63.371 c 4.965,4.814 12.105,7.223 21.424,7.223 6.684,0 12.438,-1.672 17.252,-5.014 4.811,-3.328 7.76,-6.873 8.846,-10.602 l 29.135,0 c -4.662,14.443 -11.813,24.783 -21.436,30.988 -9.643,6.219 -21.285,9.324 -34.951,9.324 -9.482,0 -18.025,-1.516 -25.635,-4.549 -7.609,-3.027 -14.061,-7.334 -19.34,-12.932 -5.283,-5.59 -9.354,-12.264 -12.225,-20.037 -2.881,-7.76 -4.313,-16.303 -4.313,-25.627 0,-9.004 1.475,-17.396 4.428,-25.162 2.938,-7.764 7.141,-14.482 12.584,-20.152 5.43,-5.672 11.914,-10.139 19.447,-13.396 7.531,-3.266 15.881,-4.893 25.053,-4.893 10.246,0 19.178,1.98 26.787,5.938 7.613,3.957 13.875,9.279 18.752,15.963 4.9,6.676 8.432,14.293 10.607,22.838 2.17,8.539 2.953,17.467 2.334,26.789 l -86.91,0 c 0.465,10.713 3.182,18.486 8.161,23.301"
         id="path29"
         style="fill:#ffffff" />
      <rect
         x="1390.533"
         y="63.334999"
         width="33.082001"
         height="166.36301"
         id="rect31"
         style="fill:#ffffff" />
    </g>
  </g>
</svg>
